<svg width="20" height="20" viewBox="0 0 20 20" fill="none" xmlns="http://www.w3.org/2000/svg">
<g id="Group">
<path id="Vector" d="M19.7009 12.4183C18.3647 17.7783 12.9343 21.0365 7.5819 19.7004C2.22174 18.3643 -1.03655 12.934 0.299583 7.58173C1.63572 2.22169 7.05839 -1.03653 12.4186 0.299576C17.7709 1.62787 21.037 7.05823 19.7009 12.4183Z" fill="url(#paint0_linear_0_1503)"/>
<path id="Vector_2" d="M14.7612 8.75403C14.9565 7.4259 13.9487 6.70715 12.558 6.23059L13.0112 4.4259L11.9174 4.15247L11.4799 5.91028C11.1909 5.83997 10.894 5.76965 10.5971 5.70715L11.0346 3.94153L9.94086 3.66809L9.49554 5.46497C9.25336 5.41028 9.01898 5.35559 8.79242 5.3009V5.29309L7.27679 4.91809L6.98773 6.08997C6.98773 6.08997 7.80023 6.27747 7.78461 6.28528C8.22992 6.39465 8.30804 6.69153 8.29242 6.9259L7.77679 8.98059C7.80804 8.9884 7.84711 8.99622 7.89398 9.01965C7.85492 9.01184 7.81586 9.00403 7.77679 8.9884L7.05804 11.8634C7.00336 11.9962 6.86273 12.1993 6.55804 12.1212C6.56586 12.1368 5.76117 11.9259 5.76117 11.9259L5.21429 13.1837L6.64398 13.5431C6.90961 13.6134 7.16742 13.6759 7.42523 13.7462L6.97211 15.5665L8.06586 15.84L8.51898 14.0353C8.81586 14.1134 9.11273 14.1915 9.39398 14.2618L8.94867 16.0587L10.0424 16.3322L10.4955 14.5118C12.3705 14.8634 13.7768 14.7228 14.3627 13.0275C14.8393 11.6681 14.3393 10.879 13.3549 10.3634C14.0815 10.1993 14.6205 9.72278 14.7612 8.75403ZM12.2534 12.2697C11.9174 13.629 9.62054 12.8947 8.87836 12.7072L9.47992 10.2931C10.2221 10.4806 12.6127 10.8478 12.2534 12.2697ZM12.5971 8.73059C12.2846 9.97278 10.3784 9.33997 9.76117 9.18372L10.308 6.99622C10.9252 7.15247 12.9174 7.44153 12.5971 8.73059Z" fill="white"/>
</g>
<defs>
<linearGradient id="paint0_linear_0_1503" x1="9.99466" y1="-0.0047105" x2="9.99466" y2="19.998" gradientUnits="userSpaceOnUse">
<stop stop-color="#F9AA4B"/>
<stop offset="1" stop-color="#F7931A"/>
</linearGradient>
</defs>
</svg>
