<svg width="22" height="22" viewBox="0 0 22 22" fill="none" xmlns="http://www.w3.org/2000/svg">
<g id="vuesax/linear/box-time">
<g id="box-time">
<g id="Group">
<g id="Group_2">
<path id="Vector" d="M2.90585 6.82007L11 11.5042L19.0392 6.84754" stroke="#05422C" stroke-width="1.5" stroke-linecap="round" stroke-linejoin="round"/>
<path id="Vector_2" d="M11 19.8092V11.495" stroke="#05422C" stroke-width="1.5" stroke-linecap="round" stroke-linejoin="round"/>
</g>
<path id="Vector_3" d="M19.8092 8.40588V13.5942C19.8092 13.6401 19.8092 13.6767 19.8 13.7225C19.1583 13.1634 18.3333 12.8334 17.4167 12.8334C16.555 12.8334 15.7575 13.1359 15.125 13.6401C14.2817 14.3092 13.75 15.3451 13.75 16.5001C13.75 17.1876 13.9425 17.8384 14.2817 18.3884C14.3642 18.5351 14.465 18.6726 14.575 18.8009L12.8975 19.7267C11.8525 20.3134 10.1475 20.3134 9.1025 19.7267L4.20751 17.0134C3.09834 16.3992 2.19086 14.8592 2.19086 13.5942V8.40588C2.19086 7.14088 3.09834 5.60089 4.20751 4.98673L9.1025 2.27337C10.1475 1.68671 11.8525 1.68671 12.8975 2.27337L17.7925 4.98673C18.9017 5.60089 19.8092 7.14088 19.8092 8.40588Z" stroke="#05422C" stroke-width="1.5" stroke-linecap="round" stroke-linejoin="round"/>
</g>
<g id="Group_3">
<path id="Vector_4" d="M21.0833 16.5C21.0833 17.6 20.5975 18.5809 19.8367 19.25C19.1858 19.8184 18.3425 20.1667 17.4167 20.1667C15.3908 20.1667 13.75 18.5259 13.75 16.5C13.75 15.345 14.2817 14.3092 15.125 13.64C15.7575 13.1359 16.555 12.8334 17.4167 12.8334C19.4425 12.8334 21.0833 14.4742 21.0833 16.5Z" stroke="#05422C" stroke-width="1.5" stroke-miterlimit="10" stroke-linecap="round" stroke-linejoin="round"/>
<path id="Vector_5" d="M17.6458 15.3542V16.7292L16.5 17.4167" stroke="#05422C" stroke-width="1.5" stroke-miterlimit="10" stroke-linecap="round" stroke-linejoin="round"/>
</g>
</g>
</g>
</svg>
