<svg width="20" height="20" viewBox="0 0 20 20" fill="none" xmlns="http://www.w3.org/2000/svg">
<g id="Clip path group">
<mask id="mask0_0_1507" style="mask-type:luminance" maskUnits="userSpaceOnUse" x="0" y="0" width="20" height="20">
<g id="a">
<path id="Vector" d="M0.000183105 0H19.9998V20H0.000183105V0Z" fill="white"/>
</g>
</mask>
<g mask="url(#mask0_0_1507)">
<g id="Group">
<path id="Vector_2" d="M1.9507 0.34082H18.0491C18.2606 0.340805 18.4699 0.382434 18.6653 0.46333C18.8606 0.544226 19.0381 0.662804 19.1876 0.812295C19.3371 0.961786 19.4557 1.13926 19.5367 1.33459C19.6176 1.52992 19.6592 1.73927 19.6592 1.9507V18.0495C19.6592 18.2609 19.6176 18.4702 19.5367 18.6656C19.4557 18.8609 19.3371 19.0383 19.1876 19.1878C19.0381 19.3373 18.8607 19.4559 18.6653 19.5367C18.47 19.6176 18.2607 19.6593 18.0493 19.6592H1.95047C1.52358 19.6592 1.11418 19.4897 0.812316 19.1878C0.510452 18.886 0.340851 18.4766 0.34082 18.0497V1.95058C0.340851 1.52364 0.510476 1.11419 0.812383 0.812302C1.11429 0.510416 1.52375 0.34082 1.9507 0.34082Z" fill="#FDB913"/>
<path id="Vector_3" d="M18.0495 0.340728C18.4764 0.34085 18.8858 0.510523 19.1876 0.812439C19.4895 1.11436 19.6591 1.52379 19.6591 1.95072V18.0494C19.6591 18.4763 19.4895 18.8857 19.1876 19.1876C18.8858 19.4895 18.4764 19.6592 18.0495 19.6593H1.95079C1.73936 19.6593 1.53 19.6177 1.33466 19.5368C1.13932 19.4559 0.961833 19.3373 0.812333 19.1878C0.662832 19.0383 0.544251 18.8609 0.463363 18.6655C0.382476 18.4702 0.340866 18.2608 0.340911 18.0494V1.95072C0.340866 1.73929 0.382475 1.52992 0.463361 1.33458C0.544248 1.13923 0.662827 0.961733 0.812326 0.812224C0.961824 0.662714 1.13931 0.544123 1.33465 0.463222C1.52999 0.382322 1.73936 0.340698 1.95079 0.340728H18.0495ZM18.0495 0H1.95079C1.4336 0.000546867 0.93776 0.206248 0.572066 0.571964C0.206371 0.93768 0.000699546 1.43354 0.000183105 1.95072L0.000183105 18.0494C0.000760238 18.5665 0.206455 19.0624 0.57214 19.428C0.937825 19.7937 1.43363 19.9994 1.95079 20H18.0495C18.5666 19.9994 19.0624 19.7937 19.428 19.428C19.7936 19.0623 19.9993 18.5665 19.9998 18.0494V1.95072C19.9994 1.43357 19.7937 0.937727 19.4281 0.572011C19.0624 0.206295 18.5666 0.000577293 18.0495 0Z" fill="white"/>
<path id="Vector_4" d="M11.1272 10.2085L11.1256 6.74973L12.0285 6.53547V6.98901C12.0285 6.98901 12.2623 6.39271 12.8051 6.25431C12.8861 6.2282 12.9723 6.2224 13.0562 6.23744V7.11996C12.8936 7.12208 12.733 7.15551 12.5831 7.21842C12.2495 7.35017 12.0816 7.63765 12.0816 8.0765L12.0822 9.98636L11.1272 10.2085ZM6.36795 11.3333C6.36795 11.3333 6.22105 11.1132 6.22105 10.3349V8.61289L5.75661 8.72341V8.01384L6.2222 7.90389V7.1304L7.18218 6.90375V7.67713L7.86043 7.516V8.22465L7.18218 8.38566C7.18218 8.38566 7.18104 9.79666 7.18218 10.1392C7.18218 10.9367 7.39381 11.0898 7.39381 11.0898L6.36795 11.3333ZM7.96084 9.27564C7.96084 8.66075 8.04841 8.21214 8.23639 7.86786C8.46017 7.45931 8.82684 7.19306 9.36117 7.07141C10.4143 6.8319 10.7945 7.45529 10.7797 8.29122C10.7741 8.59017 10.7755 8.7358 10.7755 8.7358L8.92002 9.1719V9.20174C8.92002 9.78587 9.04247 10.063 9.41258 9.98441C9.73231 9.91705 9.82125 9.71679 9.84649 9.46913C9.85063 9.42919 9.85258 9.32763 9.85258 9.32763L10.7218 9.11934C10.7218 9.11934 10.7238 9.19049 10.7226 9.27036C10.715 9.60225 10.6185 10.4256 9.4104 10.7112C8.266 10.9828 7.96096 10.2839 7.96096 9.27553M9.39973 7.71569C9.09228 7.78546 8.93104 8.08705 8.92404 8.58673L9.8574 8.36443C9.859 8.34183 9.85923 8.29202 9.859 8.21398C9.8574 7.83676 9.7408 7.63765 9.39973 7.71569ZM16.3055 7.25297C16.2695 6.19957 16.5427 5.36353 17.718 5.09728C18.4671 4.92709 18.7516 5.12195 18.8956 5.31028C19.0341 5.48999 19.0876 5.73237 19.0876 6.07184L19.0884 6.13415L18.1689 6.35266L18.1682 6.2247C18.1689 5.82212 18.057 5.66902 17.7646 5.74224C17.4169 5.82957 17.2764 6.15963 17.2764 6.81584C17.2764 7.0488 17.2776 7.09058 17.2776 7.12202C17.2776 7.7889 17.3686 8.09417 17.7693 8.01028C18.117 7.93844 18.1645 7.63317 18.1702 7.36555C18.1709 7.32354 18.1726 7.18904 18.1726 7.18904L19.0907 6.97214C19.0907 6.97214 19.0916 7.03997 19.0916 7.11537C19.0893 7.98985 18.6284 8.54094 17.7649 8.74189C16.5753 9.02076 16.3424 8.33333 16.3054 7.25297M13.127 8.72777C13.127 7.9265 13.5963 7.67311 14.3028 7.38081C14.9381 7.11801 14.9519 6.98752 14.9545 6.75915C14.958 6.56692 14.8689 6.40247 14.5526 6.48314C14.4472 6.5044 14.352 6.56065 14.2825 6.64279C14.213 6.72492 14.1733 6.82812 14.1698 6.93565C14.1646 6.99468 14.1626 7.05394 14.1638 7.11319L13.2731 7.32354C13.2671 7.14602 13.2878 6.9686 13.3346 6.79725C13.4769 6.31812 13.8995 5.99575 14.629 5.82693C15.5767 5.60854 15.8925 6.02444 15.8936 6.67135V8.20331C15.8936 8.94421 16.0312 9.05278 16.0312 9.05278L15.1568 9.25969C15.1085 9.15865 15.0693 9.05354 15.0396 8.94559C15.0396 8.94559 14.8479 9.42805 14.1877 9.5832C13.4942 9.74674 13.127 9.31696 13.127 8.72777ZM14.9485 7.63363C14.8011 7.73698 14.6455 7.82809 14.4832 7.90608C14.1917 8.04849 14.06 8.2242 14.06 8.4948C14.06 8.72915 14.2051 8.88304 14.469 8.81786C14.752 8.74648 14.9485 8.48241 14.9485 8.11552V7.63363ZM1.3485 13.7579C1.24869 13.7578 1.15076 13.7307 1.06502 13.6797C0.979276 13.6286 0.908896 13.5553 0.861287 13.4676C0.813679 13.3799 0.790603 13.2809 0.794488 13.1812C0.798374 13.0814 0.829078 12.9846 0.883368 12.9009L0.889565 12.8928L0.899893 12.8901L2.20577 12.5818V13.5735L2.18546 13.5782C1.94488 13.6361 1.70383 13.6921 1.46234 13.7461C1.42491 13.754 1.38675 13.758 1.3485 13.7579ZM1.3485 15.0265C1.20157 15.0265 1.06064 14.9682 0.956677 14.8644C0.852717 14.7605 0.794235 14.6197 0.794083 14.4727C0.793783 14.3657 0.82482 14.2609 0.883368 14.1713L0.889565 14.1621L0.899893 14.1593L2.20577 13.8512V14.8429L2.18546 14.8481C1.88925 14.9193 1.53521 15.0012 1.46234 15.0158C1.42483 15.0231 1.3867 15.0266 1.3485 15.0265ZM1.3485 16.2976C1.20151 16.2975 1.06056 16.2391 0.956608 16.1351C0.852659 16.0312 0.794205 15.8903 0.794083 15.7433C0.793691 15.6362 0.824737 15.5315 0.883368 15.4419L0.889565 15.4319L2.20577 15.1217V16.1133L2.18546 16.1187C1.87261 16.1939 1.52523 16.2724 1.46234 16.2862C1.42486 16.2938 1.38673 16.2976 1.3485 16.2976ZM2.20565 6.75513V12.3036L1.19437 12.5428L1.19403 6.99418L2.20565 6.75513ZM3.71408 12.0707C3.7152 11.988 3.69989 11.9059 3.66903 11.8292C3.63816 11.7525 3.59237 11.6827 3.5343 11.6238C3.47623 11.565 3.40705 11.5182 3.33077 11.4863C3.25449 11.4544 3.17263 11.438 3.08995 11.438C3.00727 11.438 2.92541 11.4544 2.84913 11.4863C2.77285 11.5182 2.70367 11.565 2.6456 11.6238C2.58753 11.6827 2.54174 11.7525 2.51088 11.8292C2.48001 11.9059 2.4647 11.988 2.46582 12.0707L2.46697 17.2568C2.46751 17.7046 2.64556 18.1339 2.96211 18.4507C3.27865 18.7675 3.70786 18.9459 4.15569 18.9467C4.62816 18.9467 5.92244 18.9444 5.92244 18.9444L5.92302 16.781L5.92359 14.3683C5.92374 14.2338 5.89069 14.1014 5.82736 13.9827C5.76404 13.8641 5.67241 13.7629 5.5606 13.6881L3.98607 12.6185L3.98561 15.0472C3.98561 15.0649 3.98214 15.0823 3.97539 15.0986C3.96864 15.1149 3.95875 15.1297 3.94628 15.1422C3.93381 15.1547 3.91901 15.1645 3.90272 15.1713C3.88643 15.178 3.86897 15.1815 3.85134 15.1815C3.8337 15.1815 3.81624 15.178 3.79995 15.1713C3.78366 15.1645 3.76886 15.1547 3.75639 15.1422C3.74393 15.1297 3.73404 15.1149 3.72729 15.0986C3.72054 15.0823 3.71707 15.0649 3.71707 15.0472C3.71707 15.0212 3.71408 12.3914 3.71408 12.0707ZM4.55701 8.20147C4.36567 8.24587 4.18616 8.33106 4.03076 8.4512C3.87537 8.57135 3.74773 8.72362 3.65659 8.89762V8.50766L2.74572 8.72318L2.74687 11.2135C2.90663 11.1503 3.08075 11.1326 3.24998 11.1622C3.41921 11.1918 3.57697 11.2676 3.70582 11.3812V9.77337C3.70582 9.38811 3.89747 9.08043 4.17129 9.02007C4.37729 8.97485 4.54932 9.04853 4.54932 9.41542L4.55001 11.7614L5.50942 11.5365V9.05473C5.50942 8.45303 5.27771 8.03243 4.55701 8.20147ZM18.4967 4.65017C18.3793 4.65028 18.2646 4.61558 18.167 4.55046C18.0693 4.48534 17.9932 4.39272 17.9483 4.28434C17.9033 4.17595 17.8915 4.05665 17.9144 3.94156C17.9372 3.82646 17.9937 3.72073 18.0767 3.63774C18.1596 3.55476 18.2654 3.49825 18.3805 3.47537C18.4956 3.45249 18.6148 3.46427 18.7232 3.50921C18.8316 3.55416 18.9243 3.63024 18.9894 3.72785C19.0546 3.82546 19.0893 3.94019 19.0892 4.05754C19.089 4.21466 19.0266 4.3653 18.9155 4.47642C18.8044 4.58754 18.6538 4.64995 18.4967 4.65017ZM18.4967 3.53881C18.3941 3.53879 18.2938 3.56918 18.2085 3.62615C18.1232 3.68312 18.0567 3.7641 18.0175 3.85885C17.9782 3.95361 17.9679 4.05788 17.9879 4.15849C18.0079 4.25909 18.0572 4.35151 18.1298 4.42405C18.2023 4.4966 18.2947 4.54601 18.3953 4.56604C18.4959 4.58608 18.6001 4.57583 18.6949 4.5366C18.7897 4.49737 18.8707 4.43091 18.9277 4.34564C18.9847 4.26037 19.0151 4.16011 19.0152 4.05754C19.015 3.92004 18.9604 3.78821 18.8632 3.69096C18.766 3.59371 18.6342 3.539 18.4967 3.53881Z" fill="#231F20"/>
<path id="Vector_5" d="M18.2807 3.7042H18.5363C18.5612 3.70152 18.5865 3.70451 18.6102 3.71294C18.6338 3.72137 18.6553 3.73502 18.6729 3.75289C18.6906 3.77075 18.704 3.79237 18.7121 3.81612C18.7203 3.83988 18.723 3.86517 18.72 3.89011C18.72 3.9841 18.6784 4.05629 18.5995 4.06857V4.06995C18.6712 4.07729 18.709 4.11688 18.7127 4.21868C18.714 4.26458 18.7147 4.3215 18.7169 4.3658C18.717 4.37827 18.7201 4.39053 18.7262 4.40146C18.7322 4.41239 18.7408 4.42163 18.7513 4.42835H18.6206C18.6082 4.40921 18.6014 4.38692 18.6011 4.36408C18.5971 4.32081 18.5981 4.27996 18.5962 4.2274C18.5942 4.14844 18.57 4.11378 18.4907 4.11378H18.3962V4.42823H18.2807V3.7042ZM18.4886 4.02668C18.5043 4.02811 18.5202 4.02604 18.535 4.02062C18.5498 4.0152 18.5632 4.00656 18.5742 3.99533C18.5853 3.9841 18.5937 3.97056 18.5989 3.95568C18.6041 3.94079 18.6059 3.92495 18.6042 3.90928C18.6042 3.83204 18.5709 3.79142 18.4947 3.79142H18.3962V4.02668H18.4886Z" fill="#231F20"/>
</g>
</g>
</g>
</svg>
