<svg width="27" height="26" viewBox="0 0 27 26" fill="none" xmlns="http://www.w3.org/2000/svg">
<g id="vuesax/linear/coin">
<g id="vuesax/linear/coin_2">
<g id="coin">
<path id="Vector" d="M11.1558 19.4777C15.9363 19.4777 19.8117 15.6023 19.8117 10.8218C19.8117 6.04136 15.9363 2.16602 11.1558 2.16602C6.37535 2.16602 2.5 6.04136 2.5 10.8218C2.5 15.6023 6.37535 19.4777 11.1558 19.4777Z" fill="#05422C" stroke="#05422C" stroke-width="1.5" stroke-linecap="round" stroke-linejoin="round"/>
<path id="Vector_2" d="M14.3945 21.5354C15.3695 22.9112 16.962 23.8104 18.782 23.8104C21.7395 23.8104 24.1445 21.4054 24.1445 18.4479C24.1445 16.6495 23.2562 15.057 21.902 14.082" stroke="#C3D2CC" stroke-width="1.5" stroke-linecap="round" stroke-linejoin="round"/>
<path id="Vector_3" d="M9 12.3508C9 13.1849 9.65 13.8674 10.4408 13.8674H12.0658C12.7592 13.8674 13.3225 13.2716 13.3225 12.5458C13.3225 11.7549 12.9758 11.4733 12.4667 11.2891L9.86667 10.3791C9.34667 10.1949 9 9.91328 9 9.12245C9 8.39661 9.56333 7.80078 10.2567 7.80078H11.8817C12.6833 7.81161 13.3333 8.48328 13.3333 9.31745" stroke="white" stroke-width="1.5" stroke-linecap="round" stroke-linejoin="round"/>
<path id="Vector_4" d="M11.168 13.9199V14.7216" stroke="white" stroke-width="1.5" stroke-linecap="round" stroke-linejoin="round"/>
<path id="Vector_5" d="M11.168 6.94531V7.79031" stroke="white" stroke-width="1.5" stroke-linecap="round" stroke-linejoin="round"/>
</g>
</g>
</g>
</svg>
