<svg width="14" height="14" viewBox="0 0 14 14" fill="none" xmlns="http://www.w3.org/2000/svg">
<g id="vuesax/bold/dollar-circle">
<g id="dollar-circle">
<path id="Vector" d="M8.01083 8.53998C8.01083 8.61287 7.98347 8.67701 7.94333 8.72205V8.32862C7.96575 8.33768 7.98122 8.34487 7.99285 8.35113C7.99962 8.37418 8.01083 8.42945 8.01083 8.53998ZM7.98782 8.33744C7.98785 8.3374 7.98819 8.33802 7.98879 8.33939C7.98809 8.33817 7.9878 8.33748 7.98782 8.33744Z" fill="white" stroke="white"/>
<path id="Vector_2" d="M1.66678 6.95731C1.65612 4.01441 4.03952 1.61919 6.98399 1.60828C9.92836 1.6032 12.3228 3.98224 12.3335 6.92593C12.3441 9.86898 9.96048 12.2643 7.01581 12.275C4.07276 12.2856 1.67745 9.90198 1.66678 6.95731ZM9.88595 8.53995C9.88595 7.91134 9.69785 7.44215 9.39551 7.10412C9.10429 6.77853 8.74622 6.61914 8.48448 6.52832L7.93762 6.33275V5.3888C7.97889 5.45447 8.00512 5.53726 8.00512 5.63495C8.00512 6.15026 8.42731 6.57245 8.94262 6.57245C9.45793 6.57245 9.88012 6.15026 9.88012 5.63495C9.88012 4.47915 9.04058 3.4978 7.92647 3.3559C7.85656 2.90824 7.46648 2.56245 7.00012 2.56245C6.53893 2.56245 6.15232 2.90063 6.07621 3.34107C4.97358 3.39847 4.11429 4.33606 4.11429 5.45995C4.11429 6.08856 4.30239 6.55775 4.60473 6.89578C4.89594 7.22137 5.25401 7.38076 5.51574 7.47158L6.06262 7.66715V8.61111C6.02135 8.54544 5.99512 8.46264 5.99512 8.36495C5.99512 7.84964 5.57293 7.42745 5.05762 7.42745C4.54231 7.42745 4.12012 7.84964 4.12012 8.36495C4.12012 9.52076 4.95965 10.5021 6.07377 10.644C6.14367 11.0917 6.53376 11.4375 7.00012 11.4375C7.46132 11.4375 7.84792 11.0993 7.92403 10.6588C9.02666 10.6014 9.88595 9.66385 9.88595 8.53995Z" fill="white" stroke="white"/>
<path id="Vector_3" d="M5.99512 5.46588C5.99512 5.37802 6.02489 5.31598 6.06262 5.27538V5.67723C6.0402 5.66818 6.02473 5.66099 6.0131 5.65473C6.00633 5.63168 5.99512 5.57641 5.99512 5.46588ZM6.01813 5.66842C6.0181 5.66845 6.01776 5.66784 6.01716 5.66647C6.01786 5.66769 6.01815 5.66838 6.01813 5.66842Z" fill="white" stroke="white"/>
</g>
</g>
</svg>
