<svg width="20" height="21" viewBox="0 0 20 21" fill="none" xmlns="http://www.w3.org/2000/svg">
<g id="Clip path group">
<mask id="mask0_0_2131" style="mask-type:luminance" maskUnits="userSpaceOnUse" x="0" y="0" width="21" height="21">
<g id="a">
<path id="Vector" d="M0.000488281 0.5H20.0001V20.5H0.000488281V0.5Z" fill="white"/>
</g>
</mask>
<g mask="url(#mask0_0_2131)">
<g id="Group">
<path id="Vector_2" d="M1.95094 0.84082H18.0494C18.2608 0.840805 18.4702 0.882434 18.6655 0.96333C18.8608 1.04423 19.0383 1.1628 19.1879 1.3123C19.3374 1.46179 19.456 1.63926 19.5369 1.83459C19.6178 2.02992 19.6595 2.23927 19.6595 2.4507V18.5495C19.6595 18.7609 19.6178 18.9702 19.5369 19.1656C19.456 19.3609 19.3374 19.5383 19.1879 19.6878C19.0384 19.8373 18.8609 19.9559 18.6656 20.0367C18.4703 20.1176 18.2609 20.1593 18.0495 20.1592H1.95071C1.52383 20.1592 1.11442 19.9897 0.81256 19.6878C0.510696 19.386 0.341095 18.9766 0.341064 18.5497V2.45058C0.341095 2.02364 0.51072 1.61419 0.812628 1.3123C1.11454 1.01042 1.524 0.84082 1.95094 0.84082Z" fill="#FDB913"/>
<path id="Vector_3" d="M18.0498 0.840728C18.4767 0.84085 18.8861 1.01052 19.1879 1.31244C19.4898 1.61436 19.6594 2.02379 19.6594 2.45072V18.5494C19.6594 18.9763 19.4898 19.3857 19.1879 19.6876C18.8861 19.9895 18.4767 20.1592 18.0498 20.1593H1.95109C1.73967 20.1593 1.53031 20.1177 1.33497 20.0368C1.13963 19.9559 0.962138 19.8373 0.812638 19.6878C0.663138 19.5383 0.544557 19.3609 0.463669 19.1655C0.382781 18.9702 0.341171 18.7608 0.341216 18.5494V2.45072C0.341171 2.23929 0.38278 2.02992 0.463666 1.83458C0.544553 1.63923 0.663132 1.46173 0.812631 1.31222C0.962129 1.16271 1.13962 1.04412 1.33496 0.963222C1.5303 0.882322 1.73966 0.840698 1.95109 0.840728H18.0498ZM18.0498 0.5H1.95109C1.43391 0.500547 0.938066 0.706248 0.572371 1.07196C0.206677 1.43768 0.00100472 1.93354 0.000488281 2.45072L0.000488281 18.5494C0.00106541 19.0665 0.20676 19.5624 0.572445 19.928C0.93813 20.2937 1.43394 20.4994 1.95109 20.5H18.0498C18.5669 20.4994 19.0627 20.2937 19.4283 19.928C19.7939 19.5623 19.9996 19.0665 20.0001 18.5494V2.45072C19.9997 1.93357 19.794 1.43773 19.4284 1.07201C19.0627 0.706295 18.5669 0.500577 18.0498 0.5Z" fill="white"/>
<path id="Vector_4" d="M11.1276 10.7084L11.126 7.24961L12.0288 7.03535V7.48889C12.0288 7.48889 12.2627 6.89259 12.8054 6.75419C12.8865 6.72807 12.9727 6.72228 13.0565 6.73732V7.61983C12.894 7.62196 12.7334 7.65539 12.5835 7.7183C12.2499 7.85005 12.082 8.13753 12.082 8.57637L12.0825 10.4862L11.1276 10.7084ZM6.36832 11.8332C6.36832 11.8332 6.22142 11.6131 6.22142 10.8348V9.11277L5.75698 9.22329V8.51371L6.22257 8.40377V7.63028L7.18255 7.40362V8.177L7.86079 8.01588V8.72453L7.18255 8.88554C7.18255 8.88554 7.1814 10.2965 7.18255 10.6391C7.18255 11.4366 7.39417 11.5897 7.39417 11.5897L6.36832 11.8332ZM7.96121 9.77552C7.96121 9.16063 8.04877 8.71202 8.23675 8.36774C8.46054 7.95919 8.8272 7.69294 9.36153 7.57129C10.4147 7.33178 10.7949 7.95517 10.7801 8.79109C10.7745 9.09005 10.7759 9.23568 10.7759 9.23568L8.92039 9.67178V9.70161C8.92039 10.2858 9.04284 10.5629 9.41295 10.4843C9.73267 10.4169 9.82161 10.2167 9.84686 9.96901C9.85099 9.92907 9.85294 9.82751 9.85294 9.82751L10.7221 9.61921C10.7221 9.61921 10.7242 9.69037 10.723 9.77024C10.7154 10.1021 10.6189 10.9254 9.41077 11.2111C8.26636 11.4827 7.96132 10.7838 7.96132 9.77541M9.40009 8.21556C9.09265 8.28534 8.93141 8.58693 8.92441 9.08661L9.85776 8.86431C9.85937 8.8417 9.8596 8.7919 9.85937 8.71386C9.85776 8.33664 9.74117 8.13753 9.40009 8.21556ZM16.3059 7.75284C16.2698 6.69944 16.5431 5.8634 17.7184 5.59716C18.4674 5.42697 18.7519 5.62183 18.8959 5.81016C19.0345 5.98987 19.0879 6.23225 19.0879 6.57171L19.0887 6.63403L18.1693 6.85254L18.1686 6.72458C18.1693 6.32199 18.0574 6.1689 17.765 6.24212C17.4172 6.32945 17.2768 6.65951 17.2768 7.31572C17.2768 7.54868 17.2779 7.59046 17.2779 7.6219C17.2779 8.28878 17.3689 8.59405 17.7697 8.51016C18.1174 8.43832 18.1649 8.13305 18.1705 7.86542C18.1712 7.82342 18.1729 7.68892 18.1729 7.68892L19.091 7.47202C19.091 7.47202 19.092 7.53985 19.092 7.61524C19.0897 8.48973 18.6288 9.04082 17.7653 9.24176C16.5757 9.52063 16.3427 8.83321 16.3058 7.75284M13.1273 9.22765C13.1273 8.42638 13.5967 8.17299 14.3032 7.88069C14.9385 7.61788 14.9523 7.4874 14.9549 7.25902C14.9584 7.0668 14.8693 6.90234 14.553 6.98302C14.4475 7.00427 14.3524 7.06053 14.2829 7.14266C14.2134 7.2248 14.1737 7.328 14.1702 7.43553C14.165 7.49456 14.163 7.55382 14.1642 7.61306L13.2734 7.82342C13.2674 7.6459 13.2882 7.46848 13.3349 7.29712C13.4772 6.81799 13.8999 6.49563 14.6293 6.32681C15.577 6.10842 15.8929 6.52432 15.894 7.17123V8.70319C15.894 9.44409 16.0316 9.55265 16.0316 9.55265L15.1571 9.75957C15.1089 9.65852 15.0697 9.55341 15.0399 9.44547C15.0399 9.44547 14.8483 9.92792 14.1881 10.0831C13.4946 10.2466 13.1273 9.81683 13.1273 9.22765ZM14.9488 8.13351C14.8014 8.23685 14.6458 8.32797 14.4836 8.40595C14.1921 8.54837 14.0603 8.72407 14.0603 8.99468C14.0603 9.22902 14.2055 9.38292 14.4694 9.31774C14.7524 9.24635 14.9488 8.98229 14.9488 8.61539V8.13351ZM1.34886 14.2578C1.24905 14.2577 1.15112 14.2306 1.06538 14.1795C0.979642 14.1284 0.909262 14.0552 0.861654 13.9675C0.814045 13.8797 0.790969 13.7808 0.794855 13.6811C0.79874 13.5813 0.829444 13.4845 0.883734 13.4007L0.889931 13.3927L0.90026 13.3899L2.20613 13.0817V14.0734L2.18582 14.0781C1.94524 14.136 1.7042 14.192 1.46271 14.246C1.42528 14.2539 1.38712 14.2578 1.34886 14.2578ZM1.34886 15.5264C1.20193 15.5264 1.061 15.4681 0.957043 15.3642C0.853083 15.2604 0.794601 15.1196 0.794449 14.9726C0.794149 14.8656 0.825187 14.7608 0.883734 14.6711L0.889931 14.662L0.90026 14.6592L2.20613 14.3511V15.3427L2.18582 15.348C1.88962 15.4192 1.53558 15.5011 1.46271 15.5157C1.4252 15.5229 1.38707 15.5265 1.34886 15.5264ZM1.34886 16.7975C1.20187 16.7974 1.06092 16.7389 0.956975 16.635C0.853025 16.5311 0.794571 16.3901 0.794449 16.2432C0.794057 16.1361 0.825103 16.0313 0.883734 15.9418L0.889931 15.9318L2.20613 15.6216V16.6131L2.18582 16.6185C1.87298 16.6938 1.5256 16.7723 1.46271 16.7861C1.42523 16.7936 1.38709 16.7974 1.34886 16.7975ZM2.20602 7.25501V12.8035L1.19474 13.0427L1.19439 7.49406L2.20602 7.25501ZM3.71445 12.5705C3.71557 12.4879 3.70025 12.4058 3.66939 12.3291C3.63853 12.2524 3.59273 12.1826 3.53467 12.1237C3.4766 12.0649 3.40742 12.0181 3.33114 11.9862C3.25486 11.9543 3.173 11.9379 3.09032 11.9379C3.00763 11.9379 2.92578 11.9543 2.8495 11.9862C2.77322 12.0181 2.70403 12.0649 2.64597 12.1237C2.5879 12.1826 2.5421 12.2524 2.51124 12.3291C2.48038 12.4058 2.46506 12.4879 2.46618 12.5705L2.46733 17.7566C2.46788 18.2045 2.64593 18.6338 2.96247 18.9506C3.27902 19.2674 3.70823 19.4457 4.15605 19.4466C4.62853 19.4466 5.92281 19.4443 5.92281 19.4443L5.92338 17.2808L5.92396 14.8682C5.92411 14.7337 5.89105 14.6012 5.82773 14.4826C5.76441 14.3639 5.67278 14.2627 5.56097 14.188L3.98643 13.1184L3.98598 15.5471C3.98598 15.5648 3.9825 15.5822 3.97575 15.5985C3.96901 15.6148 3.95912 15.6296 3.94665 15.6421C3.93418 15.6545 3.91938 15.6644 3.90309 15.6712C3.8868 15.6779 3.86934 15.6814 3.8517 15.6814C3.83407 15.6814 3.81661 15.6779 3.80032 15.6712C3.78403 15.6644 3.76923 15.6545 3.75676 15.6421C3.74429 15.6296 3.7344 15.6148 3.72765 15.5985C3.72091 15.5822 3.71743 15.5648 3.71743 15.5471C3.71743 15.5211 3.71445 12.8913 3.71445 12.5705ZM4.55737 8.70135C4.36603 8.74575 4.18653 8.83094 4.03113 8.95108C3.87573 9.07122 3.7481 9.2235 3.65695 9.39749V9.00753L2.74609 9.22306L2.74724 11.7134C2.907 11.6502 3.08112 11.6325 3.25035 11.662C3.41958 11.6916 3.57733 11.7674 3.70619 11.8811V10.2732C3.70619 9.88799 3.89784 9.58031 4.17166 9.51995C4.37766 9.47473 4.54968 9.54841 4.54968 9.9153L4.55037 12.2613L5.50978 12.0363V9.5546C5.50978 8.95291 5.27808 8.53231 4.55737 8.70135ZM18.497 5.15005C18.3797 5.15016 18.2649 5.11546 18.1673 5.05034C18.0697 4.98522 17.9936 4.8926 17.9486 4.78421C17.9037 4.67582 17.8919 4.55653 17.9147 4.44143C17.9376 4.32634 17.9941 4.2206 18.077 4.13762C18.16 4.05464 18.2657 3.99813 18.3808 3.97525C18.4959 3.95237 18.6152 3.96415 18.7236 4.00909C18.832 4.05403 18.9246 4.13012 18.9898 4.22773C19.0549 4.32533 19.0896 4.44007 19.0895 4.55742C19.0894 4.71453 19.0269 4.86518 18.9158 4.9763C18.8048 5.08742 18.6542 5.14983 18.497 5.15005ZM18.497 4.03869C18.3945 4.03867 18.2942 4.06906 18.2089 4.12603C18.1236 4.183 18.0571 4.26398 18.0178 4.35873C17.9786 4.45349 17.9683 4.55776 17.9883 4.65836C18.0082 4.75897 18.0576 4.85139 18.1301 4.92393C18.2026 4.99648 18.295 5.04589 18.3956 5.06592C18.4962 5.08595 18.6005 5.07571 18.6953 5.03648C18.79 4.99725 18.8711 4.93079 18.9281 4.84552C18.9851 4.76025 19.0155 4.65999 19.0155 4.55742C19.0154 4.41992 18.9607 4.28808 18.8635 4.19084C18.7663 4.09359 18.6345 4.03887 18.497 4.03869Z" fill="#231F20"/>
<path id="Vector_5" d="M18.281 4.20408H18.5366C18.5616 4.2014 18.5868 4.20439 18.6105 4.21282C18.6341 4.22124 18.6556 4.2349 18.6732 4.25276C18.6909 4.27063 18.7043 4.29224 18.7124 4.316C18.7206 4.33976 18.7233 4.36505 18.7203 4.38999C18.7203 4.48398 18.6787 4.55617 18.5998 4.56845V4.56982C18.6715 4.57717 18.7093 4.61676 18.713 4.71855C18.7143 4.76446 18.715 4.82138 18.7172 4.86568C18.7173 4.87815 18.7204 4.89041 18.7265 4.90134C18.7325 4.91226 18.7411 4.92151 18.7516 4.92822H18.6209C18.6085 4.90908 18.6017 4.8868 18.6014 4.86396C18.5974 4.82069 18.5984 4.77984 18.5965 4.72728C18.5945 4.64832 18.5703 4.61366 18.491 4.61366H18.3965V4.92811H18.281V4.20408ZM18.489 4.52656C18.5046 4.52799 18.5205 4.52592 18.5353 4.5205C18.5501 4.51508 18.5635 4.50644 18.5745 4.49521C18.5856 4.48398 18.594 4.47043 18.5992 4.45555C18.6044 4.44067 18.6062 4.42483 18.6045 4.40916C18.6045 4.33192 18.5712 4.2913 18.495 4.2913H18.3965V4.52656H18.489Z" fill="#231F20"/>
</g>
</g>
</g>
</svg>
