<svg width="25" height="24" viewBox="0 0 25 24" fill="none" xmlns="http://www.w3.org/2000/svg">
<g id="vuesax/bold/security-time">
<g id="security-time">
<path id="Vector" d="M12.666 8.25C10.876 8.25 9.41602 9.71 9.41602 11.5C9.41602 13.29 10.876 14.75 12.666 14.75C14.456 14.75 15.916 13.29 15.916 11.5C15.916 9.71 14.456 8.25 12.666 8.25ZM13.666 11.18C13.666 11.79 13.336 12.37 12.816 12.68L12.046 13.14C11.926 13.21 11.796 13.25 11.656 13.25C11.406 13.25 11.156 13.12 11.016 12.89C10.806 12.53 10.916 12.07 11.276 11.86L12.036 11.4C12.116 11.35 12.156 11.27 12.156 11.19V10.26C12.156 9.85 12.496 9.51 12.906 9.51C13.316 9.51 13.666 9.84 13.666 10.25V11.18Z" fill="#05422C"/>
<path id="Vector_2" d="M19.2068 4.17063L13.7068 2.11062C13.1368 1.90063 12.2068 1.90063 11.6368 2.11062L6.1368 4.17063C5.0768 4.57063 4.2168 5.81063 4.2168 6.94063V15.0406C4.2168 15.8506 4.7468 16.9206 5.3968 17.4006L10.8968 21.5106C11.8668 22.2406 13.4568 22.2406 14.4268 21.5106L19.9268 17.4006C20.5768 16.9106 21.1068 15.8506 21.1068 15.0406V6.94063C21.1168 5.81063 20.2568 4.57063 19.2068 4.17063ZM12.6668 16.2506C10.0468 16.2506 7.9168 14.1206 7.9168 11.5006C7.9168 8.88062 10.0468 6.75063 12.6668 6.75063C15.2868 6.75063 17.4168 8.88062 17.4168 11.5006C17.4168 14.1206 15.2868 16.2506 12.6668 16.2506Z" fill="#05422C"/>
</g>
</g>
</svg>
