<svg width="14" height="14" viewBox="0 0 14 14" fill="none" xmlns="http://www.w3.org/2000/svg">
<g id="vuesax/linear/ticket-2">
<g id="ticket-2">
<path id="Vector" d="M11.0308 8.57055C11.0308 9.32305 11.6491 9.93555 12.4016 9.93555C12.4016 12.1231 11.8533 12.6714 9.66581 12.6714H4.19415C2.00665 12.6714 1.45831 12.1231 1.45831 9.93555V9.66722C2.21081 9.66722 2.82915 9.04889 2.82915 8.29639C2.82915 7.54389 2.21081 6.92555 1.45831 6.92555V6.65722C1.46415 4.46972 2.00665 3.92139 4.19415 3.92139H9.65998C11.8475 3.92139 12.3958 4.46972 12.3958 6.65722V7.20555C11.6433 7.20555 11.0308 7.81222 11.0308 8.57055Z" stroke="#05422C" stroke-linecap="round" stroke-linejoin="round"/>
<path id="Vector_2" d="M9.45649 3.92154H4.15399L5.86316 2.21237C7.25733 0.818206 7.95732 0.818206 9.35149 2.21237L9.70149 2.56237C9.33399 2.92987 9.24649 3.47237 9.45649 3.92154Z" stroke="#05422C" stroke-linecap="round" stroke-linejoin="round"/>
<path id="Vector_3" d="M5.7627 3.92163L5.7627 12.6716" stroke="#05422C" stroke-linecap="round" stroke-linejoin="round" stroke-dasharray="5 5"/>
</g>
</g>
</svg>
