<svg width="23" height="23" viewBox="0 0 23 23" fill="none" xmlns="http://www.w3.org/2000/svg">
<path id="Vector" d="M21.3626 10.9282L20.8967 13.734L19.8134 13.2898C19.1309 13.019 18.3726 13.019 17.6901 13.2898L14.6784 14.5248C14.2667 14.6982 13.9309 15.1966 13.9309 15.6516V18.0241C13.9309 19.3783 14.4292 20.6891 15.2851 21.7507H5.36172C3.87755 21.7507 2.48007 20.57 2.2309 19.1075L0.865893 10.9282C0.69256 9.92074 1.20171 8.56655 2.00338 7.92738L9.13173 2.22904C10.2259 1.35154 12.0026 1.35155 13.0967 2.23988L20.2251 7.92738C21.0159 8.56655 21.5359 9.92074 21.3626 10.9282Z" stroke="#05422C" stroke-width="1.5" stroke-linecap="round" stroke-linejoin="round"/>
</svg>
