<svg width="22" height="22" viewBox="0 0 22 22" fill="none" xmlns="http://www.w3.org/2000/svg">
<g id="vuesax/linear/truck-time">
<g id="truck-time">
<path id="Vector" d="M13.75 1.83337V11C13.75 12.0084 12.925 12.8334 11.9167 12.8334H1.83334V6.98504C2.50251 7.78254 3.5292 8.27754 4.66587 8.25004C5.5917 8.23171 6.42585 7.87421 7.04918 7.27838C7.33335 7.04004 7.5717 6.73753 7.75503 6.40753C8.08503 5.84837 8.26834 5.18835 8.25001 4.50085C8.22251 3.42835 7.74586 2.48421 7.00336 1.83337H13.75Z" stroke="#05422C" stroke-width="1.5" stroke-linecap="round" stroke-linejoin="round"/>
<path id="Vector_2" d="M20.1667 12.8334V15.5834C20.1667 17.105 18.9383 18.3334 17.4167 18.3334H16.5C16.5 17.325 15.675 16.5 14.6667 16.5C13.6583 16.5 12.8333 17.325 12.8333 18.3334H9.16668C9.16668 17.325 8.34168 16.5 7.33334 16.5C6.32501 16.5 5.50001 17.325 5.50001 18.3334H4.58334C3.06168 18.3334 1.83334 17.105 1.83334 15.5834V12.8334H11.9167C12.925 12.8334 13.75 12.0084 13.75 11V4.58337H15.4367C16.0967 4.58337 16.7017 4.94088 17.0317 5.50922L18.5992 8.25004H17.4167C16.9125 8.25004 16.5 8.66254 16.5 9.16671V11.9167C16.5 12.4209 16.9125 12.8334 17.4167 12.8334H20.1667Z" stroke="#05422C" stroke-width="1.5" stroke-linecap="round" stroke-linejoin="round"/>
<path id="Vector_3" d="M7.33333 20.1667C8.34586 20.1667 9.16667 19.3459 9.16667 18.3333C9.16667 17.3208 8.34586 16.5 7.33333 16.5C6.32081 16.5 5.5 17.3208 5.5 18.3333C5.5 19.3459 6.32081 20.1667 7.33333 20.1667Z" stroke="#05422C" stroke-width="1.5" stroke-linecap="round" stroke-linejoin="round"/>
<path id="Vector_4" d="M14.6667 20.1667C15.6792 20.1667 16.5 19.3459 16.5 18.3333C16.5 17.3208 15.6792 16.5 14.6667 16.5C13.6542 16.5 12.8333 17.3208 12.8333 18.3333C12.8333 19.3459 13.6542 20.1667 14.6667 20.1667Z" stroke="#05422C" stroke-width="1.5" stroke-linecap="round" stroke-linejoin="round"/>
<path id="Vector_5" d="M20.1667 11V12.8333H17.4167C16.9125 12.8333 16.5 12.4208 16.5 11.9167V9.16667C16.5 8.6625 16.9125 8.25 17.4167 8.25H18.5991L20.1667 11Z" stroke="#05422C" stroke-width="1.5" stroke-linecap="round" stroke-linejoin="round"/>
<g id="Group">
<path id="Vector_6" d="M8.24999 4.58329C8.24999 5.68329 7.76417 6.66413 7.00334 7.33329C6.3525 7.90163 5.50916 8.24996 4.58332 8.24996C2.55749 8.24996 0.916656 6.60913 0.916656 4.58329C0.916656 3.42829 1.44832 2.39246 2.29166 1.7233C2.92416 1.21913 3.72166 0.916626 4.58332 0.916626C6.60916 0.916626 8.24999 2.55746 8.24999 4.58329Z" stroke="#05422C" stroke-width="1.5" stroke-miterlimit="10" stroke-linecap="round" stroke-linejoin="round"/>
<path id="Vector_7" d="M4.81249 3.4375V4.8125L3.66666 5.5" stroke="#05422C" stroke-width="1.5" stroke-miterlimit="10" stroke-linecap="round" stroke-linejoin="round"/>
</g>
</g>
</g>
</svg>
