<svg width="38" height="14" viewBox="0 0 38 14" fill="none" xmlns="http://www.w3.org/2000/svg">
<g id="Visa">
<path id="Vector" d="M19.6037 5.06401C19.5837 6.55968 21.0128 7.39437 22.0894 7.89059C23.1956 8.3998 23.5671 8.72629 23.5629 9.18158C23.5544 9.87849 22.6805 10.186 21.8625 10.198C20.4355 10.219 19.6058 9.83356 18.9462 9.54201L18.4321 11.8175C19.0939 12.106 20.3194 12.3576 21.5902 12.3686C24.573 12.3686 26.5246 10.9758 26.5351 8.81615C26.5468 6.07543 22.5274 5.92367 22.5549 4.69859C22.5644 4.32717 22.9391 3.93079 23.7603 3.82994C24.1666 3.77902 25.2886 3.74009 26.5605 4.29422L27.0597 2.09266C26.3758 1.85703 25.4965 1.63138 24.402 1.63138C21.5944 1.63138 19.6196 3.04318 19.6037 5.06401ZM31.8569 1.82109C31.3123 1.82109 30.8532 2.12162 30.6484 2.5829L26.3874 12.2068H29.3681L29.9613 10.6563H33.6038L33.9479 12.2068H36.575L34.2825 1.82109H31.8569ZM32.2739 4.6267L33.1341 8.5266H30.7782L32.2739 4.6267ZM15.9897 1.82109L13.6402 12.2068H16.4805L18.829 1.82109H15.9897ZM11.7878 1.82109L8.83138 8.89003L7.6355 2.87943C7.49512 2.20848 6.94099 1.82109 6.32564 1.82109H1.49254L1.42499 2.12261C2.41715 2.3263 3.54442 2.65478 4.22732 3.00623C4.64529 3.2209 4.76456 3.4086 4.90178 3.91881L7.16687 12.2068H10.1687L14.7706 1.82109H11.7878Z" fill="url(#paint0_linear_0_1501)"/>
</g>
<defs>
<linearGradient id="paint0_linear_0_1501" x1="17.5849" y1="12.584" x2="17.8789" y2="1.5558" gradientUnits="userSpaceOnUse">
<stop stop-color="#222357"/>
<stop offset="1" stop-color="#254AA5"/>
</linearGradient>
</defs>
</svg>
