<svg width="14" height="14" viewBox="0 0 14 14" fill="none" xmlns="http://www.w3.org/2000/svg">
<g id="vuesax/linear/wallet">
<path id="Vector" d="M12.8333 6.99992V9.91659C12.8333 11.6666 11.6666 12.8333 9.91663 12.8333H4.08329C2.33329 12.8333 1.16663 11.6666 1.16663 9.91659V6.99992C1.16663 5.41325 2.12329 4.30492 3.61079 4.11825C3.76246 4.09492 3.91996 4.08325 4.08329 4.08325H9.91663C10.0683 4.08325 10.2141 4.08908 10.3541 4.11241C11.8591 4.28741 12.8333 5.40159 12.8333 6.99992Z" stroke="white" stroke-linecap="round" stroke-linejoin="round"/>
<path id="Vector_2" d="M10.355 4.11258C10.215 4.08925 10.0692 4.08342 9.91753 4.08342H4.08419C3.92086 4.08342 3.76336 4.09509 3.61169 4.11842C3.69336 3.95509 3.81003 3.80342 3.95003 3.66342L5.84586 1.76175C6.64503 0.968415 7.94003 0.968415 8.73919 1.76175L9.76003 2.79426C10.1334 3.16176 10.3317 3.62841 10.355 4.11258Z" stroke="white" stroke-linecap="round" stroke-linejoin="round"/>
<path id="Vector_3" d="M12.8333 7.29175H11.0833C10.4416 7.29175 9.91663 7.81675 9.91663 8.45841C9.91663 9.10008 10.4416 9.62508 11.0833 9.62508H12.8333" stroke="white" stroke-linecap="round" stroke-linejoin="round"/>
</g>
</svg>
